<?xml version="1.0" standalone="no"?>
<!DOCTYPE svg PUBLIC "-//W3C//DTD SVG 20010904//EN"
 "http://www.w3.org/TR/2001/REC-SVG-20010904/DTD/svg10.dtd">
<svg version="1.0" xmlns="http://www.w3.org/2000/svg"
 width="1080.000000pt" height="1080.000000pt" viewBox="0 0 1080.000000 1080.000000"
 preserveAspectRatio="xMidYMid meet">
<metadata>
Created by potrace 1.14, written by Peter Selinger 2001-2017
</metadata>
<g transform="translate(0.000000,1080.000000) scale(0.100000,-0.100000)"
fill="#000000" stroke="none">
<path d="M0 5395 l0 -3555 5400 0 5400 0 0 3555 0 3555 -5400 0 -5400 0 0
-3555z m9720 -5 l0 -2400 -3445 0 -3445 0 0 230 0 230 -890 0 -890 0 0 1885 0
1885 890 0 890 0 0 285 0 285 3445 0 3445 0 0 -2400z"/>
<path d="M3047 7573 c-4 -3 -7 -84 -7 -180 l0 -173 888 -2 887 -3 0 -1880 0
-1880 -885 -5 -885 -5 0 -115 0 -115 3228 -3 3227 -2 0 2185 0 2185 -3223 0
c-1773 0 -3227 -3 -3230 -7z m2612 -705 c17 -64 51 -213 67 -298 7 -41 16 -82
20 -90 3 -8 12 -49 20 -90 20 -98 44 -206 54 -250 24 -96 63 -272 84 -380 8
-41 29 -136 46 -210 52 -220 62 -262 103 -465 41 -199 83 -374 92 -383 19 -19
48 71 120 368 30 124 44 180 69 270 14 52 47 178 72 280 25 102 61 239 79 305
18 66 38 143 45 170 6 28 18 76 26 108 7 31 20 83 28 115 8 31 43 163 76 292
34 129 65 249 69 265 l7 30 274 0 274 0 9 -30 c8 -29 20 -74 51 -202 15 -61
67 -261 111 -428 15 -55 33 -125 40 -155 50 -209 85 -343 95 -365 5 -11 12
-40 16 -65 3 -24 10 -51 14 -60 4 -8 33 -116 64 -240 78 -306 83 -328 95 -380
6 -25 15 -61 21 -80 5 -19 17 -66 26 -105 16 -67 28 -95 43 -95 10 0 28 54 40
120 6 30 24 114 41 185 17 72 37 164 46 205 9 41 22 104 30 140 7 36 20 97 29
135 9 39 20 88 25 110 37 162 61 271 85 390 8 44 20 96 25 115 24 94 90 388
124 560 14 66 28 130 48 208 l11 42 313 0 c172 0 315 -3 318 -8 4 -7 -2 -36
-44 -197 -12 -44 -27 -105 -35 -135 -7 -30 -25 -98 -40 -150 -36 -130 -85
-313 -100 -380 -8 -30 -23 -88 -35 -129 -11 -41 -32 -117 -46 -170 -24 -88
-32 -120 -68 -266 -7 -27 -15 -57 -19 -65 -4 -8 -11 -33 -16 -55 -5 -22 -21
-85 -36 -140 -15 -55 -42 -158 -60 -230 -19 -71 -45 -173 -60 -225 -14 -52
-41 -153 -60 -225 -19 -71 -46 -175 -61 -230 -14 -55 -40 -149 -56 -210 -16
-60 -35 -135 -42 -166 -7 -31 -16 -61 -20 -67 -5 -9 -92 -12 -311 -12 l-305 0
-6 28 c-3 15 -10 38 -15 52 -4 14 -13 43 -18 65 -5 22 -30 114 -56 205 -26 91
-53 190 -60 220 -20 78 -40 152 -70 255 -33 115 -76 272 -106 388 -5 21 -23
86 -40 145 -29 103 -42 149 -73 265 -102 383 -117 432 -136 432 -17 0 -53
-114 -104 -325 -8 -30 -25 -93 -39 -140 -13 -47 -37 -130 -52 -185 -15 -55
-33 -120 -41 -145 -7 -25 -16 -64 -20 -88 -4 -23 -11 -45 -15 -48 -5 -3 -9
-13 -9 -23 0 -10 -9 -47 -20 -82 -20 -61 -59 -204 -102 -369 -25 -101 -41
-158 -73 -265 -15 -49 -33 -115 -40 -145 -17 -67 -40 -152 -55 -202 l-11 -38
-304 0 -304 0 -15 53 c-26 87 -87 308 -101 367 -8 30 -21 82 -29 115 -15 63
-48 185 -86 320 -12 44 -35 130 -50 190 -15 61 -40 155 -55 210 -15 55 -32
118 -37 140 -5 22 -13 49 -18 60 -4 11 -18 63 -30 115 -12 52 -28 118 -36 145
-51 184 -88 318 -100 368 -42 171 -65 258 -114 432 -12 44 -28 105 -35 135
-12 53 -46 179 -80 305 -10 33 -19 70 -22 83 l-5 22 320 0 319 0 12 -42z"/>
<path d="M2815 6974 c-27 -2 -88 -11 -135 -20 -261 -48 -461 -151 -612 -313
-141 -152 -208 -324 -208 -536 0 -132 15 -213 57 -315 37 -90 63 -129 139
-210 154 -163 396 -276 749 -351 319 -67 404 -88 497 -123 194 -73 282 -144
344 -274 25 -52 27 -68 28 -172 0 -109 -2 -119 -32 -183 -44 -95 -135 -185
-233 -231 -86 -40 -163 -66 -195 -66 -13 0 -25 -4 -28 -9 -9 -13 -252 -22
-346 -12 -205 22 -370 85 -487 185 -78 68 -150 202 -165 311 -3 19 -12 20
-202 23 l-199 2 6 -96 c4 -53 11 -102 15 -108 5 -6 14 -32 21 -59 6 -26 27
-77 46 -113 179 -338 563 -526 1070 -526 477 1 831 153 1016 437 59 91 87 159
114 273 22 94 16 356 -10 442 -53 173 -141 292 -303 408 -48 34 -202 112 -221
112 -9 0 -21 4 -27 8 -14 13 -190 69 -274 87 -41 9 -91 20 -110 25 -20 5 -72
17 -115 26 -142 28 -199 42 -270 63 -280 84 -418 193 -459 362 -20 84 -20 121
0 201 24 92 49 136 120 203 80 77 137 107 279 147 69 19 104 23 250 23 146 0
182 -3 253 -23 115 -31 201 -76 272 -140 86 -77 132 -163 167 -312 l9 -35 202
-3 203 -2 -6 62 c-10 92 -34 185 -66 255 -16 34 -29 65 -29 68 0 3 -18 33 -40
66 -125 182 -312 318 -535 385 -153 47 -384 71 -550 58z"/>
</g>
</svg>
